<!DOCTYPE svg PUBLIC "-//W3C//DTD SVG 1.1//EN" "http://www.w3.org/Graphics/SVG/1.1/DTD/svg11.dtd">
<!-- Uploaded to: SVG Repo, www.svgrepo.com, Transformed by: SVG Repo Mixer Tools -->
<svg width="800px" height="800px" viewBox="0 -45.19 512 512" xmlns="http://www.w3.org/2000/svg" fill="#d8af5b">
<g id="SVGRepo_bgCarrier" stroke-width="0"/>
<g id="SVGRepo_tracerCarrier" stroke-linecap="round" stroke-linejoin="round"/>
<g id="SVGRepo_iconCarrier"> <defs> <style>.cls-1{fill:none;stroke:#d8af5b;stroke-linecap:round;stroke-linejoin:round;stroke-width:20px;}</style> </defs> <g data-name="Layer 2" id="Layer_2"> <g data-name="E427, Cloud, data, download, multimedia, server" id="E427_Cloud_data_download_multimedia_server"> <line class="cls-1" x1="256" x2="256" y1="197.5" y2="411.63"/> <polyline class="cls-1" points="298.78 358.15 256 411.63 213.22 358.15"/> <path class="cls-1" d="M448.47,181.08A140.6,140.6,0,0,0,185.65,87.35,90.42,90.42,0,0,0,60.2,170.65a91.37,91.37,0,0,0,.65,10.78A60.25,60.25,0,0,0,10,240.94h0a60.24,60.24,0,0,0,60.24,60.24H441.76A60.24,60.24,0,0,0,502,240.94h0A60.24,60.24,0,0,0,448.47,181.08Z"/> </g> </g> </g>
</svg>